<svg width="433" height="459" viewBox="0 0 433 459" fill="none" xmlns="http://www.w3.org/2000/svg">
<path d="M202.96 12.4148C203.569 27.7648 194.186 38.3119 185.209 48.9792C182.459 52.2463 179.071 54.9687 176.082 58.044C173.692 60.5027 171.665 60.3733 169.543 57.7157C162.13 48.4278 154.666 39.1808 146.939 29.3747C146.062 28.0177 145.467 27.2043 144.859 26.0196C144.231 23.8445 143.615 22.0408 143 20.2372C143.003 18.2729 143.005 16.3086 143.172 13.6907C143.508 12.4966 143.68 11.9561 143.852 11.4156C146.735 8.3688 149.071 4.13839 152.607 2.50477C161.945 -1.80932 163.038 -0.584283 168.956 6.44111C170.203 7.92235 170.947 9.82825 172.2 12.0247C175.283 8.16382 176.919 6.11535 178.718 3.76954C178.881 3.47222 178.904 3.47333 179.223 3.39374C180.989 2.46769 182.435 1.62119 184.256 0.740546C185.375 0.599875 186.12 0.493369 186.865 0.386847C189.677 1.28582 192.49 2.1848 195.89 3.28306C196.862 3.55997 197.247 3.63763 197.631 3.71529C199.068 5.58843 200.505 7.46157 202.29 9.79526C202.745 10.9755 202.852 11.6951 202.96 12.4148Z" fill="#E1938C"/>
<path d="M277.148 270.175C268.088 270.158 259.065 271.266 250.65 269.489C230.368 265.207 226.881 246.126 235.894 231.304C239.162 225.93 244.296 221.471 249.23 217.383C256.11 211.682 263.603 206.721 271.148 201.214C264.454 188.794 258.104 177.012 251.197 164.198C246.643 170.787 242.388 176.093 239.046 181.922C221.362 212.768 200.354 241.325 178.511 269.244C170.863 279.02 167.221 289.458 165.69 301.526C161.775 332.398 157.104 363.188 148.287 393.13C143.484 409.438 138.009 425.594 127.334 439.211C123.885 443.61 119.364 447.168 115.084 451.349C114.322 451.863 113.809 452.139 112.819 452.681C111.756 453.368 111.172 453.788 110.587 454.208C104.803 455.876 99.0961 458.359 93.2072 458.915C89.5197 459.263 85.5583 456.714 81.2484 455.112C80.2422 454.266 79.7074 453.773 79.1726 453.28C77.6545 450.645 76.1363 448.009 74.4024 445.064C69.9514 423.51 76.7895 404.126 85.1743 385.382C98.766 354.998 116.467 327.034 138.628 302.126C146.118 293.707 148.688 283.81 149.601 273.351C152.018 245.678 153.96 217.963 155.995 190.258C156.483 183.619 156.596 176.953 156.825 169.837C156.882 168.658 156.995 167.943 157.251 166.728C157.306 165.902 157.218 165.574 157.13 165.247C157.133 164.837 157.136 164.426 157.249 163.366C157.372 160.667 157.386 158.619 157.4 156.57C157.426 154.129 157.452 151.688 157.236 148.878C156.994 148.509 157.079 148.534 157.079 148.534C157.631 143.801 158.356 139.08 158.702 134.331C159.755 119.893 160.427 105.423 161.73 91.0085C162.32 84.4782 172.54 79.0772 178.073 82.5908C180.284 83.9944 181.451 88.4921 181.491 91.6021C181.633 102.576 181.094 113.56 180.789 124.539C180.438 137.175 180.061 149.811 179.606 163.301C176.825 195.572 174.135 226.989 171.445 258.407C171.965 258.506 172.484 258.605 173.004 258.704C180.092 249.313 187.547 240.173 194.191 230.478C207.712 210.749 221.004 190.855 233.934 170.737C237.987 164.432 240.582 157.191 243.844 150.379C243.844 150.379 243.951 149.988 244.086 149.57C244.113 148.517 244.005 147.882 243.898 147.247C243.867 146.83 243.836 146.413 243.733 145.351C243.294 143.632 242.927 142.558 242.56 141.118C242.406 140.292 242.251 139.832 242.143 139.021C240.561 133.065 238.93 127.461 237.299 121.856C237.282 120.74 237.266 119.623 237.293 118.021C237.4 117.184 237.463 116.833 237.526 116.481C237.446 116.017 237.366 115.553 237.25 114.505C237.109 113.4 237.003 112.878 236.897 112.356C238.265 104.392 238.941 96.2169 241.279 88.5483C242.539 84.4158 246.151 80.5787 249.576 77.6203C255.734 72.3011 263.215 70.2054 270.965 73.7653C278.605 77.2742 281.407 84.514 281.664 92.2522C282.176 107.656 277.912 121.972 268.89 134.473C264.789 140.155 264.426 145.347 267.694 151.1C274.989 163.943 282.374 176.735 290.007 190.046C300.168 182.95 309.935 176.874 318.846 169.728C331.806 159.336 344.144 148.168 356.758 137.344C358.269 136.048 359.677 134.264 361.443 133.726C363.549 133.086 366.82 132.639 368.062 133.774C369.402 134.999 370.02 138.741 369.113 140.345C367.028 144.034 364.298 147.686 360.998 150.307C345.107 162.927 328.961 175.227 312.858 187.577C308.765 190.715 304.672 193.917 300.257 196.549C296.138 199.004 296.071 201.664 297.202 206.021C299.612 215.304 302.268 224.788 302.648 234.277C303.435 253.935 295.914 263.698 277.148 270.175ZM83.6101 427.235C83.6101 427.235 83.5858 427.152 83.0576 427.341C82.8515 428.012 82.6453 428.683 82.2203 430.086C82.1795 430.846 82.1387 431.606 81.9264 433.19C81.9947 434.584 82.063 435.977 82.1067 438.117C83.841 446.372 88.5816 450.004 94.9496 447.516C103.013 444.367 108.501 438.427 112.465 430.122C114.777 425.72 117.491 421.478 119.337 416.888C131.887 385.689 138.415 352.953 143.663 319.91C143.869 318.61 143.689 317.249 143.689 315.917C143.134 315.65 142.579 315.383 142.024 315.116C140.604 316.921 139.195 318.734 137.763 320.53C120.695 341.939 105.782 364.75 94.9169 389.914C90.2779 400.658 87.399 412.161 83.5108 424.046C83.4843 424.794 83.4577 425.542 83.3752 426.779C83.3752 426.779 83.5244 427.247 83.6101 427.235ZM246.356 253.058C250.74 260.873 258.056 260.218 265.261 259.399C276.136 258.162 284.752 250.032 286.063 239.734C287.29 230.093 282.749 221.971 278.523 213.866C278.19 213.228 275.976 212.809 275.232 213.263C264.839 219.605 254.534 226.141 247.746 236.677C244.626 241.52 243.579 246.797 246.356 253.058ZM266.183 112.124C267.1 105.437 268.337 98.77 268.746 92.0525C268.872 89.9675 267.205 86.4273 265.563 85.8612C262.148 84.6839 259.099 86.8558 257.607 90.2203C252.706 101.277 255.745 112.052 258.074 122.832C258.707 123.005 259.34 123.178 259.974 123.351C261.945 119.849 263.917 116.346 266.183 112.124Z" fill="#E1938C"/>
<path d="M33.0871 124.167C32.736 124.882 32.5232 125.262 32.0167 126.083C31.2526 127.544 30.7823 128.565 30.0999 129.778C29.6366 130.483 29.3851 130.996 28.9352 131.729C28.5537 132.51 28.3706 133.069 28.0741 133.776C27.9606 133.923 27.8271 134.269 27.6413 134.551C27.2733 135.472 27.0912 136.112 26.8739 136.875C26.8388 136.999 26.9595 137.226 26.9414 137.22C26.9234 137.214 26.8939 137.236 26.8939 137.236C26.6037 137.28 26.4277 137.446 26.107 138.128C25.6713 138.916 25.4944 139.311 25.3175 139.705C16.5083 156.74 11.6024 175.012 8.54605 193.806C2.2817 232.328 6.43765 269.788 20.9123 306.009C31.528 332.573 46.8155 356.144 67.2741 376.264C69.0487 378.009 70.8432 379.79 72.268 381.809C72.8706 382.663 72.5397 384.175 72.6331 385.389C71.2931 385.421 69.4571 386.035 68.6977 385.386C65.1627 382.37 61.7668 379.152 58.6083 375.74C41.1554 356.887 27.3069 335.663 16.8535 311.837C7.6744 288.355 1.63229 264.498 0.320095 239.493C-1.9711 195.833 8.0419 155.234 30.2267 117.666C36.1797 107.586 42.4549 97.6123 49.5196 88.3009C54.3114 81.9853 60.5792 76.7371 66.4655 71.3139C84.7949 54.4264 105.071 40.3987 128.171 30C129.958 30.3945 131.481 31.0132 133.004 31.632C131.693 33.1049 130.67 35.2021 129.03 35.9562C108.141 45.5585 89.3147 58.196 72.4939 73.8364C56.7879 88.4402 43.5947 105.029 33.0871 124.167Z" fill="#E1938C"/>
<path d="M309.798 423.942C286.224 434.956 261.884 441.993 236.275 444.309C214.439 446.284 192.75 445.246 171.288 440.531C170.317 440.318 169.321 440.22 167.586 439.884C163.458 438.806 159.975 438.18 156.749 436.903C155.243 436.307 154.234 434.452 153 433.168C154.812 432.592 156.605 431.932 158.45 431.491C159.008 431.357 159.698 431.904 160.349 432.012C174.596 434.381 188.767 437.935 203.108 438.863C247.175 441.713 288.475 431.857 326.004 408.27C336.484 401.684 345.867 393.351 355.977 385.711C356.201 385.603 356.523 385.223 356.842 385.112C358.725 383.418 360.29 381.835 361.928 380.058C362.001 379.864 361.885 379.465 361.908 379.48C361.93 379.494 361.979 379.47 362.302 379.431C363.684 378.342 364.743 377.292 365.991 376.092C366.434 375.712 366.57 375.427 366.647 374.856C366.708 374.626 366.754 374.153 367.052 374.028C368.472 372.992 369.593 372.081 370.997 371.001C374.584 367.102 378.116 363.549 381.158 359.617C403.794 330.35 418.367 297.62 423.887 260.875C429.877 220.993 425.191 182.437 409.143 145.569C388.952 99.1795 355.963 64.4391 310.937 41.258C285.105 27.959 257.567 20.8999 228.633 18.9511C226.908 18.8349 225.264 17.5186 223.583 16.7607C224.567 15.491 225.552 14.2213 226.863 13.0199C227.632 13.0587 228.074 13.0294 228.516 13C250.035 14.7608 271.075 18.7714 291.34 26.404C313.344 34.6915 333.522 46.1842 352.174 61.0258C364.528 73.6913 376.56 86.2467 388.98 99.3136C390.75 101.565 392.133 103.305 393.516 105.045C404.466 121.909 414.4 139.401 420.183 158.698C424.551 173.271 427.175 188.368 430.614 204.055C430.996 206.946 431.339 209.013 431.681 211.08C431.691 212.466 431.702 213.852 431.705 216.078C431.943 219.642 432.187 222.366 432.39 225.542C432.411 229.018 432.474 232.042 432.537 235.066C431.016 254.999 428.342 274.718 422.269 293.869C410.98 329.47 391.675 360.116 364.806 385.896C348.648 401.399 330.366 414.075 309.798 423.942Z" fill="#E1938C"/>
</svg>
